ISO-10303-21;
HEADER;
/* Generated by software containing ST-Developer
 * from STEP Tools, Inc. (www.steptools.com) 
 */
/* OPTION: using custom renumber hook */

FILE_DESCRIPTION(
/* description */ ('STEP AP242',
'CAx-IF Rec.Pracs.---Representation and Presentation of Product Manufa
cturing Information (PMI)---4.0---2014-10-13',
'CAx-IF Rec.Pracs.---3D Tessellated Geometry---0.4---2014-09-14','2;1'),

/* implementation_level */ '2;1');

FILE_NAME(
/* name */ '68646b5a3fa5493f30125b6e',
/* time_stamp */ '2025-07-01T23:12:27Z',
/* author */ (''),
/* organization */ (''),
/* preprocessor_version */ 'ST-DEVELOPER v20',
/* originating_system */ 'ONSHAPE BY PTC INC, 1.200',
/* authorisation */ '  ');

FILE_SCHEMA (('AP242_MANAGED_MODEL_BASED_3D_ENGINEERING_MIM_LF { 1 0 10303 442 1 1 4 }'));
ENDSEC;

DATA;
#10=SHAPE_REPRESENTATION_RELATIONSHIP('','',#619,#11);
#11=ADVANCED_BREP_SHAPE_REPRESENTATION('',(#617),#1067);
#12=TOROIDAL_SURFACE('',#686,0.004,0.001);
#13=TOROIDAL_SURFACE('',#693,0.004,0.001);
#14=TOROIDAL_SURFACE('',#695,0.004,0.001);
#15=TOROIDAL_SURFACE('',#701,0.004,0.001);
#16=DEGENERATE_TOROIDAL_SURFACE('',#683,0.00025,0.0015,.T.);
#17=DEGENERATE_TOROIDAL_SURFACE('',#684,0.00025,0.0015,.T.);
#18=DEGENERATE_TOROIDAL_SURFACE('',#685,0.00025,0.0015,.T.);
#19=CIRCLE('',#628,0.002);
#20=CIRCLE('',#629,0.002);
#21=CIRCLE('',#631,0.0045);
#22=CIRCLE('',#632,0.0045);
#23=CIRCLE('',#636,0.004);
#24=CIRCLE('',#637,0.004);
#25=CIRCLE('',#638,0.004);
#26=CIRCLE('',#639,0.004);
#27=CIRCLE('',#640,0.001525);
#28=CIRCLE('',#641,0.001525);
#29=CIRCLE('',#642,0.001525);
#30=CIRCLE('',#644,0.003);
#31=CIRCLE('',#645,0.003);
#32=CIRCLE('',#646,0.003);
#33=CIRCLE('',#647,0.005);
#34=CIRCLE('',#648,0.005);
#35=CIRCLE('',#649,0.005);
#36=CIRCLE('',#650,0.005);
#37=CIRCLE('',#652,0.005);
#38=CIRCLE('',#654,0.005);
#39=CIRCLE('',#656,0.005);
#40=CIRCLE('',#658,0.005);
#41=CIRCLE('',#660,0.001525);
#42=CIRCLE('',#662,0.001525);
#43=CIRCLE('',#664,0.001525);
#44=CIRCLE('',#666,0.00175);
#45=CIRCLE('',#667,0.00175);
#46=CIRCLE('',#669,0.003);
#47=CIRCLE('',#672,0.00175);
#48=CIRCLE('',#673,0.00175);
#49=CIRCLE('',#675,0.003);
#50=CIRCLE('',#678,0.00175);
#51=CIRCLE('',#679,0.00175);
#52=CIRCLE('',#681,0.003);
#53=CIRCLE('',#687,0.001);
#54=CIRCLE('',#688,0.001);
#55=CIRCLE('',#690,0.001);
#56=CIRCLE('',#692,0.001);
#57=CIRCLE('',#694,0.001);
#58=CIRCLE('',#696,0.001);
#59=CIRCLE('',#698,0.001);
#60=CIRCLE('',#700,0.001);
#61=CYLINDRICAL_SURFACE('',#627,0.002);
#62=CYLINDRICAL_SURFACE('',#630,0.0045);
#63=CYLINDRICAL_SURFACE('',#651,0.005);
#64=CYLINDRICAL_SURFACE('',#653,0.005);
#65=CYLINDRICAL_SURFACE('',#655,0.005);
#66=CYLINDRICAL_SURFACE('',#657,0.005);
#67=CYLINDRICAL_SURFACE('',#659,0.001525);
#68=CYLINDRICAL_SURFACE('',#661,0.001525);
#69=CYLINDRICAL_SURFACE('',#663,0.001525);
#70=CYLINDRICAL_SURFACE('',#665,0.00175);
#71=CYLINDRICAL_SURFACE('',#668,0.003);
#72=CYLINDRICAL_SURFACE('',#671,0.00175);
#73=CYLINDRICAL_SURFACE('',#674,0.003);
#74=CYLINDRICAL_SURFACE('',#677,0.00175);
#75=CYLINDRICAL_SURFACE('',#680,0.003);
#76=CYLINDRICAL_SURFACE('',#689,0.001);
#77=CYLINDRICAL_SURFACE('',#691,0.001);
#78=CYLINDRICAL_SURFACE('',#697,0.001);
#79=CYLINDRICAL_SURFACE('',#699,0.001);
#80=ORIENTED_EDGE('',*,*,#228,.T.);
#81=ORIENTED_EDGE('',*,*,#229,.T.);
#82=ORIENTED_EDGE('',*,*,#230,.T.);
#83=ORIENTED_EDGE('',*,*,#231,.F.);
#84=ORIENTED_EDGE('',*,*,#232,.T.);
#85=ORIENTED_EDGE('',*,*,#233,.T.);
#86=ORIENTED_EDGE('',*,*,#234,.T.);
#87=ORIENTED_EDGE('',*,*,#235,.T.);
#88=ORIENTED_EDGE('',*,*,#236,.T.);
#89=ORIENTED_EDGE('',*,*,#237,.T.);
#90=ORIENTED_EDGE('',*,*,#238,.T.);
#91=ORIENTED_EDGE('',*,*,#239,.T.);
#92=ORIENTED_EDGE('',*,*,#240,.F.);
#93=ORIENTED_EDGE('',*,*,#241,.F.);
#94=ORIENTED_EDGE('',*,*,#242,.T.);
#95=ORIENTED_EDGE('',*,*,#243,.T.);
#96=ORIENTED_EDGE('',*,*,#244,.T.);
#97=ORIENTED_EDGE('',*,*,#245,.F.);
#98=ORIENTED_EDGE('',*,*,#246,.F.);
#99=ORIENTED_EDGE('',*,*,#241,.T.);
#100=ORIENTED_EDGE('',*,*,#247,.T.);
#101=ORIENTED_EDGE('',*,*,#248,.F.);
#102=ORIENTED_EDGE('',*,*,#249,.F.);
#103=ORIENTED_EDGE('',*,*,#245,.T.);
#104=ORIENTED_EDGE('',*,*,#250,.T.);
#105=ORIENTED_EDGE('',*,*,#251,.F.);
#106=ORIENTED_EDGE('',*,*,#252,.T.);
#107=ORIENTED_EDGE('',*,*,#253,.F.);
#108=ORIENTED_EDGE('',*,*,#254,.F.);
#109=ORIENTED_EDGE('',*,*,#243,.F.);
#110=ORIENTED_EDGE('',*,*,#255,.T.);
#111=ORIENTED_EDGE('',*,*,#248,.T.);
#112=ORIENTED_EDGE('',*,*,#256,.T.);
#113=ORIENTED_EDGE('',*,*,#257,.T.);
#114=ORIENTED_EDGE('',*,*,#258,.T.);
#115=ORIENTED_EDGE('',*,*,#259,.F.);
#116=ORIENTED_EDGE('',*,*,#260,.T.);
#117=ORIENTED_EDGE('',*,*,#261,.T.);
#118=ORIENTED_EDGE('',*,*,#262,.T.);
#119=ORIENTED_EDGE('',*,*,#263,.T.);
#120=ORIENTED_EDGE('',*,*,#264,.T.);
#121=ORIENTED_EDGE('',*,*,#265,.T.);
#122=ORIENTED_EDGE('',*,*,#266,.T.);
#123=ORIENTED_EDGE('',*,*,#267,.T.);
#124=ORIENTED_EDGE('',*,*,#268,.T.);
#125=ORIENTED_EDGE('',*,*,#269,.T.);
#126=ORIENTED_EDGE('',*,*,#270,.T.);
#127=ORIENTED_EDGE('',*,*,#242,.F.);
#128=ORIENTED_EDGE('',*,*,#246,.T.);
#129=ORIENTED_EDGE('',*,*,#249,.T.);
#130=ORIENTED_EDGE('',*,*,#255,.F.);
#131=ORIENTED_EDGE('',*,*,#252,.F.);
#132=ORIENTED_EDGE('',*,*,#250,.F.);
#133=ORIENTED_EDGE('',*,*,#271,.F.);
#134=ORIENTED_EDGE('',*,*,#272,.F.);
#135=ORIENTED_EDGE('',*,*,#273,.F.);
#136=ORIENTED_EDGE('',*,*,#240,.T.);
#137=ORIENTED_EDGE('',*,*,#254,.T.);
#138=ORIENTED_EDGE('',*,*,#247,.F.);
#139=ORIENTED_EDGE('',*,*,#244,.F.);
#140=ORIENTED_EDGE('',*,*,#253,.T.);
#141=ORIENTED_EDGE('',*,*,#251,.T.);
#142=ORIENTED_EDGE('',*,*,#259,.T.);
#143=ORIENTED_EDGE('',*,*,#274,.T.);
#144=ORIENTED_EDGE('',*,*,#239,.F.);
#145=ORIENTED_EDGE('',*,*,#275,.T.);
#146=ORIENTED_EDGE('',*,*,#235,.F.);
#147=ORIENTED_EDGE('',*,*,#276,.T.);
#148=ORIENTED_EDGE('',*,*,#231,.T.);
#149=ORIENTED_EDGE('',*,*,#277,.T.);
#150=ORIENTED_EDGE('',*,*,#258,.F.);
#151=ORIENTED_EDGE('',*,*,#278,.T.);
#152=ORIENTED_EDGE('',*,*,#236,.F.);
#153=ORIENTED_EDGE('',*,*,#274,.F.);
#154=ORIENTED_EDGE('',*,*,#238,.F.);
#155=ORIENTED_EDGE('',*,*,#279,.T.);
#156=ORIENTED_EDGE('',*,*,#232,.F.);
#157=ORIENTED_EDGE('',*,*,#275,.F.);
#158=ORIENTED_EDGE('',*,*,#234,.F.);
#159=ORIENTED_EDGE('',*,*,#280,.T.);
#160=ORIENTED_EDGE('',*,*,#228,.F.);
#161=ORIENTED_EDGE('',*,*,#276,.F.);
#162=ORIENTED_EDGE('',*,*,#230,.F.);
#163=ORIENTED_EDGE('',*,*,#281,.T.);
#164=ORIENTED_EDGE('',*,*,#256,.F.);
#165=ORIENTED_EDGE('',*,*,#277,.F.);
#166=ORIENTED_EDGE('',*,*,#282,.T.);
#167=ORIENTED_EDGE('',*,*,#270,.F.);
#168=ORIENTED_EDGE('',*,*,#283,.T.);
#169=ORIENTED_EDGE('',*,*,#269,.F.);
#170=ORIENTED_EDGE('',*,*,#284,.T.);
#171=ORIENTED_EDGE('',*,*,#268,.F.);
#172=ORIENTED_EDGE('',*,*,#285,.T.);
#173=ORIENTED_EDGE('',*,*,#286,.T.);
#174=ORIENTED_EDGE('',*,*,#287,.F.);
#175=ORIENTED_EDGE('',*,*,#273,.T.);
#176=ORIENTED_EDGE('',*,*,#286,.F.);
#177=ORIENTED_EDGE('',*,*,#287,.T.);
#178=ORIENTED_EDGE('',*,*,#288,.T.);
#179=ORIENTED_EDGE('',*,*,#289,.T.);
#180=ORIENTED_EDGE('',*,*,#290,.F.);
#181=ORIENTED_EDGE('',*,*,#272,.T.);
#182=ORIENTED_EDGE('',*,*,#289,.F.);
#183=ORIENTED_EDGE('',*,*,#290,.T.);
#184=ORIENTED_EDGE('',*,*,#291,.T.);
#185=ORIENTED_EDGE('',*,*,#292,.T.);
#186=ORIENTED_EDGE('',*,*,#293,.F.);
#187=ORIENTED_EDGE('',*,*,#271,.T.);
#188=ORIENTED_EDGE('',*,*,#292,.F.);
#189=ORIENTED_EDGE('',*,*,#293,.T.);
#190=ORIENTED_EDGE('',*,*,#291,.F.);
#191=ORIENTED_EDGE('',*,*,#282,.F.);
#192=ORIENTED_EDGE('',*,*,#288,.F.);
#193=ORIENTED_EDGE('',*,*,#283,.F.);
#194=ORIENTED_EDGE('',*,*,#285,.F.);
#195=ORIENTED_EDGE('',*,*,#284,.F.);
#196=ORIENTED_EDGE('',*,*,#294,.F.);
#197=ORIENTED_EDGE('',*,*,#278,.F.);
#198=ORIENTED_EDGE('',*,*,#295,.F.);
#199=ORIENTED_EDGE('',*,*,#265,.F.);
#200=ORIENTED_EDGE('',*,*,#295,.T.);
#201=ORIENTED_EDGE('',*,*,#257,.F.);
#202=ORIENTED_EDGE('',*,*,#296,.F.);
#203=ORIENTED_EDGE('',*,*,#266,.F.);
#204=ORIENTED_EDGE('',*,*,#294,.T.);
#205=ORIENTED_EDGE('',*,*,#264,.F.);
#206=ORIENTED_EDGE('',*,*,#297,.F.);
#207=ORIENTED_EDGE('',*,*,#237,.F.);
#208=ORIENTED_EDGE('',*,*,#296,.T.);
#209=ORIENTED_EDGE('',*,*,#281,.F.);
#210=ORIENTED_EDGE('',*,*,#298,.F.);
#211=ORIENTED_EDGE('',*,*,#267,.F.);
#212=ORIENTED_EDGE('',*,*,#297,.T.);
#213=ORIENTED_EDGE('',*,*,#263,.F.);
#214=ORIENTED_EDGE('',*,*,#299,.F.);
#215=ORIENTED_EDGE('',*,*,#279,.F.);
#216=ORIENTED_EDGE('',*,*,#298,.T.);
#217=ORIENTED_EDGE('',*,*,#229,.F.);
#218=ORIENTED_EDGE('',*,*,#300,.F.);
#219=ORIENTED_EDGE('',*,*,#260,.F.);
#220=ORIENTED_EDGE('',*,*,#299,.T.);
#221=ORIENTED_EDGE('',*,*,#262,.F.);
#222=ORIENTED_EDGE('',*,*,#301,.F.);
#223=ORIENTED_EDGE('',*,*,#233,.F.);
#224=ORIENTED_EDGE('',*,*,#300,.T.);
#225=ORIENTED_EDGE('',*,*,#280,.F.);
#226=ORIENTED_EDGE('',*,*,#301,.T.);
#227=ORIENTED_EDGE('',*,*,#261,.F.);
#228=EDGE_CURVE('',#302,#303,#356,.F.);
#229=EDGE_CURVE('',#303,#304,#357,.T.);
#230=EDGE_CURVE('',#304,#305,#358,.T.);
#231=EDGE_CURVE('',#302,#305,#359,.T.);
#232=EDGE_CURVE('',#306,#307,#360,.F.);
#233=EDGE_CURVE('',#307,#308,#361,.F.);
#234=EDGE_CURVE('',#308,#309,#362,.T.);
#235=EDGE_CURVE('',#309,#306,#363,.T.);
#236=EDGE_CURVE('',#310,#311,#364,.F.);
#237=EDGE_CURVE('',#311,#312,#365,.F.);
#238=EDGE_CURVE('',#312,#313,#366,.T.);
#239=EDGE_CURVE('',#313,#310,#367,.T.);
#240=EDGE_CURVE('',#314,#315,#368,.T.);
#241=EDGE_CURVE('',#316,#314,#369,.T.);
#242=EDGE_CURVE('',#316,#317,#370,.T.);
#243=EDGE_CURVE('',#317,#315,#371,.T.);
#244=EDGE_CURVE('',#314,#318,#372,.T.);
#245=EDGE_CURVE('',#319,#318,#373,.T.);
#246=EDGE_CURVE('',#316,#319,#374,.T.);
#247=EDGE_CURVE('',#318,#320,#375,.T.);
#248=EDGE_CURVE('',#321,#320,#376,.T.);
#249=EDGE_CURVE('',#319,#321,#377,.T.);
#250=EDGE_CURVE('',#322,#322,#19,.T.);
#251=EDGE_CURVE('',#323,#323,#20,.T.);
#252=EDGE_CURVE('',#324,#324,#21,.T.);
#253=EDGE_CURVE('',#325,#325,#22,.T.);
#254=EDGE_CURVE('',#315,#320,#378,.T.);
#255=EDGE_CURVE('',#317,#321,#379,.T.);
#256=EDGE_CURVE('',#326,#327,#380,.F.);
#257=EDGE_CURVE('',#327,#328,#381,.T.);
#258=EDGE_CURVE('',#328,#329,#382,.T.);
#259=EDGE_CURVE('',#326,#329,#383,.T.);
#260=EDGE_CURVE('',#330,#331,#384,.F.);
#261=EDGE_CURVE('',#331,#332,#23,.T.);
#262=EDGE_CURVE('',#332,#333,#385,.T.);
#263=EDGE_CURVE('',#333,#334,#24,.T.);
#264=EDGE_CURVE('',#334,#335,#386,.T.);
#265=EDGE_CURVE('',#335,#336,#25,.T.);
#266=EDGE_CURVE('',#336,#337,#387,.F.);
#267=EDGE_CURVE('',#337,#330,#26,.T.);
#268=EDGE_CURVE('',#338,#338,#27,.F.);
#269=EDGE_CURVE('',#339,#339,#28,.F.);
#270=EDGE_CURVE('',#340,#340,#29,.F.);
#271=EDGE_CURVE('',#341,#341,#30,.T.);
#272=EDGE_CURVE('',#342,#342,#31,.T.);
#273=EDGE_CURVE('',#343,#343,#32,.T.);
#274=EDGE_CURVE('',#329,#310,#33,.F.);
#275=EDGE_CURVE('',#313,#306,#34,.F.);
#276=EDGE_CURVE('',#309,#302,#35,.F.);
#277=EDGE_CURVE('',#305,#326,#36,.F.);
#278=EDGE_CURVE('',#328,#311,#37,.F.);
#279=EDGE_CURVE('',#312,#307,#38,.F.);
#280=EDGE_CURVE('',#308,#303,#39,.F.);
#281=EDGE_CURVE('',#304,#327,#40,.F.);
#282=EDGE_CURVE('',#344,#344,#41,.T.);
#283=EDGE_CURVE('',#345,#345,#42,.T.);
#284=EDGE_CURVE('',#346,#346,#43,.T.);
#285=EDGE_CURVE('',#347,#347,#44,.T.);
#286=EDGE_CURVE('',#348,#348,#45,.T.);
#287=EDGE_CURVE('',#349,#349,#46,.T.);
#288=EDGE_CURVE('',#350,#350,#47,.T.);
#289=EDGE_CURVE('',#351,#351,#48,.T.);
#290=EDGE_CURVE('',#352,#352,#49,.T.);
#291=EDGE_CURVE('',#353,#353,#50,.T.);
#292=EDGE_CURVE('',#354,#354,#51,.T.);
#293=EDGE_CURVE('',#355,#355,#52,.T.);
#294=EDGE_CURVE('',#311,#335,#53,.T.);
#295=EDGE_CURVE('',#336,#328,#54,.T.);
#296=EDGE_CURVE('',#337,#327,#55,.T.);
#297=EDGE_CURVE('',#312,#334,#56,.T.);
#298=EDGE_CURVE('',#330,#304,#57,.T.);
#299=EDGE_CURVE('',#307,#333,#58,.T.);
#300=EDGE_CURVE('',#331,#303,#59,.T.);
#301=EDGE_CURVE('',#308,#332,#60,.T.);
#302=VERTEX_POINT('',#901);
#303=VERTEX_POINT('',#902);
#304=VERTEX_POINT('',#904);
#305=VERTEX_POINT('',#906);
#306=VERTEX_POINT('',#910);
#307=VERTEX_POINT('',#911);
#308=VERTEX_POINT('',#913);
#309=VERTEX_POINT('',#915);
#310=VERTEX_POINT('',#919);
#311=VERTEX_POINT('',#920);
#312=VERTEX_POINT('',#922);
#313=VERTEX_POINT('',#924);
#314=VERTEX_POINT('',#928);
#315=VERTEX_POINT('',#929);
#316=VERTEX_POINT('',#931);
#317=VERTEX_POINT('',#933);
#318=VERTEX_POINT('',#937);
#319=VERTEX_POINT('',#939);
#320=VERTEX_POINT('',#943);
#321=VERTEX_POINT('',#945);
#322=VERTEX_POINT('',#949);
#323=VERTEX_POINT('',#951);
#324=VERTEX_POINT('',#954);
#325=VERTEX_POINT('',#956);
#326=VERTEX_POINT('',#962);
#327=VERTEX_POINT('',#963);
#328=VERTEX_POINT('',#965);
#329=VERTEX_POINT('',#967);
#330=VERTEX_POINT('',#971);
#331=VERTEX_POINT('',#972);
#332=VERTEX_POINT('',#974);
#333=VERTEX_POINT('',#976);
#334=VERTEX_POINT('',#978);
#335=VERTEX_POINT('',#980);
#336=VERTEX_POINT('',#982);
#337=VERTEX_POINT('',#984);
#338=VERTEX_POINT('',#987);
#339=VERTEX_POINT('',#989);
#340=VERTEX_POINT('',#991);
#341=VERTEX_POINT('',#994);
#342=VERTEX_POINT('',#996);
#343=VERTEX_POINT('',#998);
#344=VERTEX_POINT('',#1013);
#345=VERTEX_POINT('',#1016);
#346=VERTEX_POINT('',#1019);
#347=VERTEX_POINT('',#1022);
#348=VERTEX_POINT('',#1024);
#349=VERTEX_POINT('',#1027);
#350=VERTEX_POINT('',#1031);
#351=VERTEX_POINT('',#1033);
#352=VERTEX_POINT('',#1036);
#353=VERTEX_POINT('',#1040);
#354=VERTEX_POINT('',#1042);
#355=VERTEX_POINT('',#1045);
#356=LINE('',#900,#388);
#357=LINE('',#903,#389);
#358=LINE('',#905,#390);
#359=LINE('',#907,#391);
#360=LINE('',#909,#392);
#361=LINE('',#912,#393);
#362=LINE('',#914,#394);
#363=LINE('',#916,#395);
#364=LINE('',#918,#396);
#365=LINE('',#921,#397);
#366=LINE('',#923,#398);
#367=LINE('',#925,#399);
#368=LINE('',#927,#400);
#369=LINE('',#930,#401);
#370=LINE('',#932,#402);
#371=LINE('',#934,#403);
#372=LINE('',#936,#404);
#373=LINE('',#938,#405);
#374=LINE('',#940,#406);
#375=LINE('',#942,#407);
#376=LINE('',#944,#408);
#377=LINE('',#946,#409);
#378=LINE('',#958,#410);
#379=LINE('',#959,#411);
#380=LINE('',#961,#412);
#381=LINE('',#964,#413);
#382=LINE('',#966,#414);
#383=LINE('',#968,#415);
#384=LINE('',#970,#416);
#385=LINE('',#975,#417);
#386=LINE('',#979,#418);
#387=LINE('',#983,#419);
#388=VECTOR('',#706,1.);
#389=VECTOR('',#707,1.);
#390=VECTOR('',#708,1.);
#391=VECTOR('',#709,1.);
#392=VECTOR('',#712,1.);
#393=VECTOR('',#713,1.);
#394=VECTOR('',#714,1.);
#395=VECTOR('',#715,1.);
#396=VECTOR('',#718,1.);
#397=VECTOR('',#719,1.);
#398=VECTOR('',#720,1.);
#399=VECTOR('',#721,1.);
#400=VECTOR('',#724,1.);
#401=VECTOR('',#725,1.);
#402=VECTOR('',#726,1.);
#403=VECTOR('',#727,1.);
#404=VECTOR('',#730,1.);
#405=VECTOR('',#731,1.);
#406=VECTOR('',#732,1.);
#407=VECTOR('',#735,1.);
#408=VECTOR('',#736,1.);
#409=VECTOR('',#737,1.);
#410=VECTOR('',#752,1.);
#411=VECTOR('',#753,1.);
#412=VECTOR('',#756,1.);
#413=VECTOR('',#757,1.);
#414=VECTOR('',#758,1.);
#415=VECTOR('',#759,1.);
#416=VECTOR('',#762,1.);
#417=VECTOR('',#765,1.);
#418=VECTOR('',#768,1.);
#419=VECTOR('',#771,1.);
#420=EDGE_LOOP('',(#80,#81,#82,#83));
#421=EDGE_LOOP('',(#84,#85,#86,#87));
#422=EDGE_LOOP('',(#88,#89,#90,#91));
#423=EDGE_LOOP('',(#92,#93,#94,#95));
#424=EDGE_LOOP('',(#96,#97,#98,#99));
#425=EDGE_LOOP('',(#100,#101,#102,#103));
#426=EDGE_LOOP('',(#104));
#427=EDGE_LOOP('',(#105));
#428=EDGE_LOOP('',(#106));
#429=EDGE_LOOP('',(#107));
#430=EDGE_LOOP('',(#108,#109,#110,#111));
#431=EDGE_LOOP('',(#112,#113,#114,#115));
#432=EDGE_LOOP('',(#116,#117,#118,#119,#120,#121,#122,#123));
#433=EDGE_LOOP('',(#124));
#434=EDGE_LOOP('',(#125));
#435=EDGE_LOOP('',(#126));
#436=EDGE_LOOP('',(#127,#128,#129,#130));
#437=EDGE_LOOP('',(#131));
#438=EDGE_LOOP('',(#132));
#439=EDGE_LOOP('',(#133));
#440=EDGE_LOOP('',(#134));
#441=EDGE_LOOP('',(#135));
#442=EDGE_LOOP('',(#136,#137,#138,#139));
#443=EDGE_LOOP('',(#140));
#444=EDGE_LOOP('',(#141));
#445=EDGE_LOOP('',(#142,#143,#144,#145,#146,#147,#148,#149));
#446=EDGE_LOOP('',(#150,#151,#152,#153));
#447=EDGE_LOOP('',(#154,#155,#156,#157));
#448=EDGE_LOOP('',(#158,#159,#160,#161));
#449=EDGE_LOOP('',(#162,#163,#164,#165));
#450=EDGE_LOOP('',(#166));
#451=EDGE_LOOP('',(#167));
#452=EDGE_LOOP('',(#168));
#453=EDGE_LOOP('',(#169));
#454=EDGE_LOOP('',(#170));
#455=EDGE_LOOP('',(#171));
#456=EDGE_LOOP('',(#172));
#457=EDGE_LOOP('',(#173));
#458=EDGE_LOOP('',(#174));
#459=EDGE_LOOP('',(#175));
#460=EDGE_LOOP('',(#176));
#461=EDGE_LOOP('',(#177));
#462=EDGE_LOOP('',(#178));
#463=EDGE_LOOP('',(#179));
#464=EDGE_LOOP('',(#180));
#465=EDGE_LOOP('',(#181));
#466=EDGE_LOOP('',(#182));
#467=EDGE_LOOP('',(#183));
#468=EDGE_LOOP('',(#184));
#469=EDGE_LOOP('',(#185));
#470=EDGE_LOOP('',(#186));
#471=EDGE_LOOP('',(#187));
#472=EDGE_LOOP('',(#188));
#473=EDGE_LOOP('',(#189));
#474=EDGE_LOOP('',(#190));
#475=EDGE_LOOP('',(#191));
#476=EDGE_LOOP('',(#192));
#477=EDGE_LOOP('',(#193));
#478=EDGE_LOOP('',(#194));
#479=EDGE_LOOP('',(#195));
#480=EDGE_LOOP('',(#196,#197,#198,#199));
#481=EDGE_LOOP('',(#200,#201,#202,#203));
#482=EDGE_LOOP('',(#204,#205,#206,#207));
#483=EDGE_LOOP('',(#208,#209,#210,#211));
#484=EDGE_LOOP('',(#212,#213,#214,#215));
#485=EDGE_LOOP('',(#216,#217,#218,#219));
#486=EDGE_LOOP('',(#220,#221,#222,#223));
#487=EDGE_LOOP('',(#224,#225,#226,#227));
#488=FACE_BOUND('',#420,.T.);
#489=FACE_BOUND('',#421,.T.);
#490=FACE_BOUND('',#422,.T.);
#491=FACE_BOUND('',#423,.T.);
#492=FACE_BOUND('',#424,.T.);
#493=FACE_BOUND('',#425,.T.);
#494=FACE_BOUND('',#426,.T.);
#495=FACE_BOUND('',#427,.T.);
#496=FACE_BOUND('',#428,.T.);
#497=FACE_BOUND('',#429,.T.);
#498=FACE_BOUND('',#430,.T.);
#499=FACE_BOUND('',#431,.T.);
#500=FACE_BOUND('',#432,.T.);
#501=FACE_BOUND('',#433,.T.);
#502=FACE_BOUND('',#434,.T.);
#503=FACE_BOUND('',#435,.T.);
#504=FACE_BOUND('',#436,.T.);
#505=FACE_BOUND('',#437,.T.);
#506=FACE_BOUND('',#438,.T.);
#507=FACE_BOUND('',#439,.T.);
#508=FACE_BOUND('',#440,.T.);
#509=FACE_BOUND('',#441,.T.);
#510=FACE_BOUND('',#442,.T.);
#511=FACE_BOUND('',#443,.T.);
#512=FACE_BOUND('',#444,.T.);
#513=FACE_BOUND('',#445,.T.);
#514=FACE_BOUND('',#446,.T.);
#515=FACE_BOUND('',#447,.T.);
#516=FACE_BOUND('',#448,.T.);
#517=FACE_BOUND('',#449,.T.);
#518=FACE_BOUND('',#450,.T.);
#519=FACE_BOUND('',#451,.T.);
#520=FACE_BOUND('',#452,.T.);
#521=FACE_BOUND('',#453,.T.);
#522=FACE_BOUND('',#454,.T.);
#523=FACE_BOUND('',#455,.T.);
#524=FACE_BOUND('',#456,.T.);
#525=FACE_BOUND('',#457,.T.);
#526=FACE_BOUND('',#458,.T.);
#527=FACE_BOUND('',#459,.T.);
#528=FACE_BOUND('',#460,.T.);
#529=FACE_BOUND('',#461,.T.);
#530=FACE_BOUND('',#462,.T.);
#531=FACE_BOUND('',#463,.T.);
#532=FACE_BOUND('',#464,.T.);
#533=FACE_BOUND('',#465,.T.);
#534=FACE_BOUND('',#466,.T.);
#535=FACE_BOUND('',#467,.T.);
#536=FACE_BOUND('',#468,.T.);
#537=FACE_BOUND('',#469,.T.);
#538=FACE_BOUND('',#470,.T.);
#539=FACE_BOUND('',#471,.T.);
#540=FACE_BOUND('',#472,.T.);
#541=FACE_BOUND('',#473,.T.);
#542=FACE_BOUND('',#474,.T.);
#543=FACE_BOUND('',#475,.T.);
#544=FACE_BOUND('',#476,.T.);
#545=FACE_BOUND('',#477,.T.);
#546=FACE_BOUND('',#478,.T.);
#547=FACE_BOUND('',#479,.T.);
#548=FACE_BOUND('',#480,.T.);
#549=FACE_BOUND('',#481,.T.);
#550=FACE_BOUND('',#482,.T.);
#551=FACE_BOUND('',#483,.T.);
#552=FACE_BOUND('',#484,.T.);
#553=FACE_BOUND('',#485,.T.);
#554=FACE_BOUND('',#486,.T.);
#555=FACE_BOUND('',#487,.T.);
#556=PLANE('',#621);
#557=PLANE('',#622);
#558=PLANE('',#623);
#559=PLANE('',#624);
#560=PLANE('',#625);
#561=PLANE('',#626);
#562=PLANE('',#633);
#563=PLANE('',#634);
#564=PLANE('',#635);
#565=PLANE('',#643);
#566=PLANE('',#670);
#567=PLANE('',#676);
#568=PLANE('',#682);
#569=ADVANCED_FACE('',(#488),#556,.T.);
#570=ADVANCED_FACE('',(#489),#557,.F.);
#571=ADVANCED_FACE('',(#490),#558,.F.);
#572=ADVANCED_FACE('',(#491),#559,.T.);
#573=ADVANCED_FACE('',(#492),#560,.F.);
#574=ADVANCED_FACE('',(#493),#561,.F.);
#575=ADVANCED_FACE('',(#494,#495),#61,.F.);
#576=ADVANCED_FACE('',(#496,#497),#62,.F.);
#577=ADVANCED_FACE('',(#498),#562,.T.);
#578=ADVANCED_FACE('',(#499),#563,.T.);
#579=ADVANCED_FACE('',(#500,#501,#502,#503,#504,#505,#506),#564,.T.);
#580=ADVANCED_FACE('',(#507,#508,#509,#510,#511,#512,#513),#565,.F.);
#581=ADVANCED_FACE('',(#514),#63,.T.);
#582=ADVANCED_FACE('',(#515),#64,.T.);
#583=ADVANCED_FACE('',(#516),#65,.T.);
#584=ADVANCED_FACE('',(#517),#66,.T.);
#585=ADVANCED_FACE('',(#518,#519),#67,.F.);
#586=ADVANCED_FACE('',(#520,#521),#68,.F.);
#587=ADVANCED_FACE('',(#522,#523),#69,.F.);
#588=ADVANCED_FACE('',(#524,#525),#70,.F.);
#589=ADVANCED_FACE('',(#526,#527),#71,.T.);
#590=ADVANCED_FACE('',(#528,#529),#566,.T.);
#591=ADVANCED_FACE('',(#530,#531),#72,.F.);
#592=ADVANCED_FACE('',(#532,#533),#73,.T.);
#593=ADVANCED_FACE('',(#534,#535),#567,.T.);
#594=ADVANCED_FACE('',(#536,#537),#74,.F.);
#595=ADVANCED_FACE('',(#538,#539),#75,.T.);
#596=ADVANCED_FACE('',(#540,#541),#568,.T.);
#597=ADVANCED_FACE('',(#542,#543),#16,.F.);
#598=ADVANCED_FACE('',(#544,#545),#17,.F.);
#599=ADVANCED_FACE('',(#546,#547),#18,.F.);
#600=ADVANCED_FACE('',(#548),#12,.T.);
#601=ADVANCED_FACE('',(#549),#76,.T.);
#602=ADVANCED_FACE('',(#550),#77,.T.);
#603=ADVANCED_FACE('',(#551),#13,.T.);
#604=ADVANCED_FACE('',(#552),#14,.T.);
#605=ADVANCED_FACE('',(#553),#78,.T.);
#606=ADVANCED_FACE('',(#554),#79,.T.);
#607=ADVANCED_FACE('',(#555),#15,.T.);
#608=CLOSED_SHELL('',(#569,#570,#571,#572,#573,#574,#575,#576,#577,#578,
#579,#580,#581,#582,#583,#584,#585,#586,#587,#588,#589,#590,#591,#592,#593,
#594,#595,#596,#597,#598,#599,#600,#601,#602,#603,#604,#605,#606,#607));
#609=STYLED_ITEM('',(#610),#617);
#610=PRESENTATION_STYLE_ASSIGNMENT((#611));
#611=SURFACE_STYLE_USAGE(.BOTH.,#612);
#612=SURFACE_SIDE_STYLE('',(#613));
#613=SURFACE_STYLE_FILL_AREA(#614);
#614=FILL_AREA_STYLE('',(#615));
#615=FILL_AREA_STYLE_COLOUR('',#616);
#616=COLOUR_RGB('',0.227450980392157,0.227450980392157,0.227450980392157);
#617=MANIFOLD_SOLID_BREP('Top',#608);
#618=SHAPE_DEFINITION_REPRESENTATION(#1072,#619);
#619=SHAPE_REPRESENTATION('Top',(#620),#1067);
#620=AXIS2_PLACEMENT_3D('',#898,#702,#703);
#621=AXIS2_PLACEMENT_3D('',#899,#704,#705);
#622=AXIS2_PLACEMENT_3D('',#908,#710,#711);
#623=AXIS2_PLACEMENT_3D('',#917,#716,#717);
#624=AXIS2_PLACEMENT_3D('',#926,#722,#723);
#625=AXIS2_PLACEMENT_3D('',#935,#728,#729);
#626=AXIS2_PLACEMENT_3D('',#941,#733,#734);
#627=AXIS2_PLACEMENT_3D('',#947,#738,#739);
#628=AXIS2_PLACEMENT_3D('',#948,#740,#741);
#629=AXIS2_PLACEMENT_3D('',#950,#742,#743);
#630=AXIS2_PLACEMENT_3D('',#952,#744,#745);
#631=AXIS2_PLACEMENT_3D('',#953,#746,#747);
#632=AXIS2_PLACEMENT_3D('',#955,#748,#749);
#633=AXIS2_PLACEMENT_3D('',#957,#750,#751);
#634=AXIS2_PLACEMENT_3D('',#960,#754,#755);
#635=AXIS2_PLACEMENT_3D('',#969,#760,#761);
#636=AXIS2_PLACEMENT_3D('',#973,#763,#764);
#637=AXIS2_PLACEMENT_3D('',#977,#766,#767);
#638=AXIS2_PLACEMENT_3D('',#981,#769,#770);
#639=AXIS2_PLACEMENT_3D('',#985,#772,#773);
#640=AXIS2_PLACEMENT_3D('',#986,#774,#775);
#641=AXIS2_PLACEMENT_3D('',#988,#776,#777);
#642=AXIS2_PLACEMENT_3D('',#990,#778,#779);
#643=AXIS2_PLACEMENT_3D('',#992,#780,#781);
#644=AXIS2_PLACEMENT_3D('',#993,#782,#783);
#645=AXIS2_PLACEMENT_3D('',#995,#784,#785);
#646=AXIS2_PLACEMENT_3D('',#997,#786,#787);
#647=AXIS2_PLACEMENT_3D('',#999,#788,#789);
#648=AXIS2_PLACEMENT_3D('',#1000,#790,#791);
#649=AXIS2_PLACEMENT_3D('',#1001,#792,#793);
#650=AXIS2_PLACEMENT_3D('',#1002,#794,#795);
#651=AXIS2_PLACEMENT_3D('',#1003,#796,#797);
#652=AXIS2_PLACEMENT_3D('',#1004,#798,#799);
#653=AXIS2_PLACEMENT_3D('',#1005,#800,#801);
#654=AXIS2_PLACEMENT_3D('',#1006,#802,#803);
#655=AXIS2_PLACEMENT_3D('',#1007,#804,#805);
#656=AXIS2_PLACEMENT_3D('',#1008,#806,#807);
#657=AXIS2_PLACEMENT_3D('',#1009,#808,#809);
#658=AXIS2_PLACEMENT_3D('',#1010,#810,#811);
#659=AXIS2_PLACEMENT_3D('',#1011,#812,#813);
#660=AXIS2_PLACEMENT_3D('',#1012,#814,#815);
#661=AXIS2_PLACEMENT_3D('',#1014,#816,#817);
#662=AXIS2_PLACEMENT_3D('',#1015,#818,#819);
#663=AXIS2_PLACEMENT_3D('',#1017,#820,#821);
#664=AXIS2_PLACEMENT_3D('',#1018,#822,#823);
#665=AXIS2_PLACEMENT_3D('',#1020,#824,#825);
#666=AXIS2_PLACEMENT_3D('',#1021,#826,#827);
#667=AXIS2_PLACEMENT_3D('',#1023,#828,#829);
#668=AXIS2_PLACEMENT_3D('',#1025,#830,#831);
#669=AXIS2_PLACEMENT_3D('',#1026,#832,#833);
#670=AXIS2_PLACEMENT_3D('',#1028,#834,#835);
#671=AXIS2_PLACEMENT_3D('',#1029,#836,#837);
#672=AXIS2_PLACEMENT_3D('',#1030,#838,#839);
#673=AXIS2_PLACEMENT_3D('',#1032,#840,#841);
#674=AXIS2_PLACEMENT_3D('',#1034,#842,#843);
#675=AXIS2_PLACEMENT_3D('',#1035,#844,#845);
#676=AXIS2_PLACEMENT_3D('',#1037,#846,#847);
#677=AXIS2_PLACEMENT_3D('',#1038,#848,#849);
#678=AXIS2_PLACEMENT_3D('',#1039,#850,#851);
#679=AXIS2_PLACEMENT_3D('',#1041,#852,#853);
#680=AXIS2_PLACEMENT_3D('',#1043,#854,#855);
#681=AXIS2_PLACEMENT_3D('',#1044,#856,#857);
#682=AXIS2_PLACEMENT_3D('',#1046,#858,#859);
#683=AXIS2_PLACEMENT_3D('',#1047,#860,#861);
#684=AXIS2_PLACEMENT_3D('',#1048,#862,#863);
#685=AXIS2_PLACEMENT_3D('',#1049,#864,#865);
#686=AXIS2_PLACEMENT_3D('',#1050,#866,#867);
#687=AXIS2_PLACEMENT_3D('',#1051,#868,#869);
#688=AXIS2_PLACEMENT_3D('',#1052,#870,#871);
#689=AXIS2_PLACEMENT_3D('',#1053,#872,#873);
#690=AXIS2_PLACEMENT_3D('',#1054,#874,#875);
#691=AXIS2_PLACEMENT_3D('',#1055,#876,#877);
#692=AXIS2_PLACEMENT_3D('',#1056,#878,#879);
#693=AXIS2_PLACEMENT_3D('',#1057,#880,#881);
#694=AXIS2_PLACEMENT_3D('',#1058,#882,#883);
#695=AXIS2_PLACEMENT_3D('',#1059,#884,#885);
#696=AXIS2_PLACEMENT_3D('',#1060,#886,#887);
#697=AXIS2_PLACEMENT_3D('',#1061,#888,#889);
#698=AXIS2_PLACEMENT_3D('',#1062,#890,#891);
#699=AXIS2_PLACEMENT_3D('',#1063,#892,#893);
#700=AXIS2_PLACEMENT_3D('',#1064,#894,#895);
#701=AXIS2_PLACEMENT_3D('',#1065,#896,#897);
#702=DIRECTION('',(0.,0.,1.));
#703=DIRECTION('',(1.,0.,0.));
#704=DIRECTION('',(1.98254111540206E-16,-1.,0.));
#705=DIRECTION('',(1.,1.98254111540206E-16,0.));
#706=DIRECTION('',(0.,0.,-1.));
#707=DIRECTION('',(-1.,-1.98254111540206E-16,0.));
#708=DIRECTION('',(0.,0.,-1.));
#709=DIRECTION('',(-1.,-1.98254111540206E-16,0.));
#710=DIRECTION('',(-1.,7.30409884621814E-17,0.));
#711=DIRECTION('',(-7.30409884621814E-17,-1.,0.));
#712=DIRECTION('',(0.,0.,-1.));
#713=DIRECTION('',(7.30409884621814E-17,1.,0.));
#714=DIRECTION('',(0.,0.,-1.));
#715=DIRECTION('',(7.30409884621814E-17,1.,0.));
#716=DIRECTION('',(1.98254111540206E-16,-1.,0.));
#717=DIRECTION('',(1.,1.98254111540206E-16,0.));
#718=DIRECTION('',(0.,0.,-1.));
#719=DIRECTION('',(-1.,-1.98254111540206E-16,0.));
#720=DIRECTION('',(0.,0.,-1.));
#721=DIRECTION('',(-1.,-1.98254111540206E-16,0.));
#722=DIRECTION('',(1.,5.99627886614785E-17,0.));
#723=DIRECTION('',(-5.99627886614785E-17,1.,0.));
#724=DIRECTION('',(5.99627886614785E-17,-1.,0.));
#725=DIRECTION('',(0.,0.,-1.));
#726=DIRECTION('',(5.99627886614785E-17,-1.,0.));
#727=DIRECTION('',(0.,0.,-1.));
#728=DIRECTION('',(0.,1.,0.));
#729=DIRECTION('',(0.,0.,1.));
#730=DIRECTION('',(1.,0.,0.));
#731=DIRECTION('',(0.,0.,-1.));
#732=DIRECTION('',(1.,0.,0.));
#733=DIRECTION('',(1.,5.99627886614785E-17,0.));
#734=DIRECTION('',(-5.99627886614785E-17,1.,0.));
#735=DIRECTION('',(5.99627886614785E-17,-1.,0.));
#736=DIRECTION('',(0.,0.,-1.));
#737=DIRECTION('',(5.99627886614785E-17,-1.,0.));
#738=DIRECTION('',(0.,0.,-1.));
#739=DIRECTION('',(-1.,0.,0.));
#740=DIRECTION('',(0.,0.,1.));
#741=DIRECTION('',(1.,0.,0.));
#742=DIRECTION('',(0.,0.,1.));
#743=DIRECTION('',(1.,0.,0.));
#744=DIRECTION('',(0.,0.,-1.));
#745=DIRECTION('',(-1.,0.,0.));
#746=DIRECTION('',(0.,0.,1.));
#747=DIRECTION('',(1.,0.,0.));
#748=DIRECTION('',(0.,0.,1.));
#749=DIRECTION('',(1.,0.,0.));
#750=DIRECTION('',(0.,1.,0.));
#751=DIRECTION('',(0.,0.,1.));
#752=DIRECTION('',(1.,0.,0.));
#753=DIRECTION('',(1.,0.,0.));
#754=DIRECTION('',(-1.,7.30409884621814E-17,0.));
#755=DIRECTION('',(-7.30409884621814E-17,-1.,0.));
#756=DIRECTION('',(0.,0.,-1.));
#757=DIRECTION('',(7.30409884621814E-17,1.,0.));
#758=DIRECTION('',(0.,0.,-1.));
#759=DIRECTION('',(7.30409884621814E-17,1.,0.));
#760=DIRECTION('',(0.,0.,1.));
#761=DIRECTION('',(1.,0.,0.));
#762=DIRECTION('',(-1.,-1.98254111540206E-16,0.));
#763=DIRECTION('',(0.,0.,1.));
#764=DIRECTION('',(1.,0.,0.));
#765=DIRECTION('',(7.30409884621814E-17,1.,0.));
#766=DIRECTION('',(0.,0.,1.));
#767=DIRECTION('',(1.,0.,0.));
#768=DIRECTION('',(-1.,-1.98254111540206E-16,0.));
#769=DIRECTION('',(0.,0.,1.));
#770=DIRECTION('',(1.,0.,0.));
#771=DIRECTION('',(7.30409884621814E-17,1.,0.));
#772=DIRECTION('',(0.,0.,1.));
#773=DIRECTION('',(1.,0.,0.));
#774=DIRECTION('',(0.,0.,1.));
#775=DIRECTION('',(1.,0.,0.));
#776=DIRECTION('',(0.,0.,1.));
#777=DIRECTION('',(1.,0.,0.));
#778=DIRECTION('',(0.,0.,1.));
#779=DIRECTION('',(1.,0.,0.));
#780=DIRECTION('',(0.,0.,1.));
#781=DIRECTION('',(1.,0.,0.));
#782=DIRECTION('',(0.,0.,-1.));
#783=DIRECTION('',(-1.,0.,0.));
#784=DIRECTION('',(0.,0.,-1.));
#785=DIRECTION('',(-1.,0.,0.));
#786=DIRECTION('',(0.,0.,-1.));
#787=DIRECTION('',(-1.,0.,0.));
#788=DIRECTION('',(0.,0.,1.));
#789=DIRECTION('',(1.,0.,0.));
#790=DIRECTION('',(0.,0.,1.));
#791=DIRECTION('',(1.,0.,0.));
#792=DIRECTION('',(0.,0.,1.));
#793=DIRECTION('',(1.,0.,0.));
#794=DIRECTION('',(0.,0.,1.));
#795=DIRECTION('',(1.,0.,0.));
#796=DIRECTION('',(0.,0.,1.));
#797=DIRECTION('',(1.,0.,0.));
#798=DIRECTION('',(0.,0.,1.));
#799=DIRECTION('',(1.,0.,0.));
#800=DIRECTION('',(0.,0.,-1.));
#801=DIRECTION('',(-1.,0.,0.));
#802=DIRECTION('',(0.,0.,1.));
#803=DIRECTION('',(1.,0.,0.));
#804=DIRECTION('',(0.,0.,1.));
#805=DIRECTION('',(1.,0.,0.));
#806=DIRECTION('',(0.,0.,1.));
#807=DIRECTION('',(1.,0.,0.));
#808=DIRECTION('',(0.,0.,-1.));
#809=DIRECTION('',(-1.,0.,0.));
#810=DIRECTION('',(0.,0.,1.));
#811=DIRECTION('',(1.,0.,0.));
#812=DIRECTION('',(0.,0.,-1.));
#813=DIRECTION('',(-1.,0.,0.));
#814=DIRECTION('',(0.,0.,-1.));
#815=DIRECTION('',(-1.,0.,0.));
#816=DIRECTION('',(0.,0.,-1.));
#817=DIRECTION('',(-1.,0.,0.));
#818=DIRECTION('',(0.,0.,-1.));
#819=DIRECTION('',(-1.,0.,0.));
#820=DIRECTION('',(0.,0.,-1.));
#821=DIRECTION('',(-1.,0.,0.));
#822=DIRECTION('',(0.,0.,-1.));
#823=DIRECTION('',(-1.,0.,0.));
#824=DIRECTION('',(0.,0.,1.));
#825=DIRECTION('',(1.,0.,0.));
#826=DIRECTION('',(0.,0.,1.));
#827=DIRECTION('',(1.,0.,0.));
#828=DIRECTION('',(0.,0.,-1.));
#829=DIRECTION('',(-1.,0.,0.));
#830=DIRECTION('',(0.,0.,1.));
#831=DIRECTION('',(1.,0.,0.));
#832=DIRECTION('',(0.,0.,-1.));
#833=DIRECTION('',(-1.,0.,0.));
#834=DIRECTION('',(0.,0.,-1.));
#835=DIRECTION('',(1.,0.,0.));
#836=DIRECTION('',(0.,0.,1.));
#837=DIRECTION('',(1.,0.,0.));
#838=DIRECTION('',(0.,0.,1.));
#839=DIRECTION('',(1.,0.,0.));
#840=DIRECTION('',(0.,0.,-1.));
#841=DIRECTION('',(-1.,0.,0.));
#842=DIRECTION('',(0.,0.,1.));
#843=DIRECTION('',(1.,0.,0.));
#844=DIRECTION('',(0.,0.,-1.));
#845=DIRECTION('',(-1.,0.,0.));
#846=DIRECTION('',(0.,0.,-1.));
#847=DIRECTION('',(1.,0.,0.));
#848=DIRECTION('',(0.,0.,1.));
#849=DIRECTION('',(1.,0.,0.));
#850=DIRECTION('',(0.,0.,1.));
#851=DIRECTION('',(1.,0.,0.));
#852=DIRECTION('',(0.,0.,-1.));
#853=DIRECTION('',(-1.,0.,0.));
#854=DIRECTION('',(0.,0.,1.));
#855=DIRECTION('',(1.,0.,0.));
#856=DIRECTION('',(0.,0.,-1.));
#857=DIRECTION('',(-1.,0.,0.));
#858=DIRECTION('',(0.,0.,-1.));
#859=DIRECTION('',(1.,0.,0.));
#860=DIRECTION('',(0.,0.,1.));
#861=DIRECTION('',(1.,0.,0.));
#862=DIRECTION('',(0.,0.,1.));
#863=DIRECTION('',(1.,0.,0.));
#864=DIRECTION('',(0.,0.,1.));
#865=DIRECTION('',(1.,0.,0.));
#866=DIRECTION('',(0.,0.,1.));
#867=DIRECTION('',(1.,0.,0.));
#868=DIRECTION('',(1.,0.,0.));
#869=DIRECTION('',(0.,0.,-1.));
#870=DIRECTION('',(0.,-1.,0.));
#871=DIRECTION('',(0.,0.,-1.));
#872=DIRECTION('',(7.30409884621814E-17,1.,0.));
#873=DIRECTION('',(-1.,7.30409884621814E-17,0.));
#874=DIRECTION('',(0.,-1.,0.));
#875=DIRECTION('',(0.,0.,-1.));
#876=DIRECTION('',(1.,1.98254111540206E-16,0.));
#877=DIRECTION('',(-1.98254111540206E-16,1.,0.));
#878=DIRECTION('',(1.,0.,0.));
#879=DIRECTION('',(0.,0.,-1.));
#880=DIRECTION('',(0.,0.,1.));
#881=DIRECTION('',(1.,0.,0.));
#882=DIRECTION('',(1.,0.,0.));
#883=DIRECTION('',(0.,0.,-1.));
#884=DIRECTION('',(0.,0.,1.));
#885=DIRECTION('',(1.,0.,0.));
#886=DIRECTION('',(0.,-1.,0.));
#887=DIRECTION('',(0.,0.,-1.));
#888=DIRECTION('',(-1.,-1.98254111540206E-16,0.));
#889=DIRECTION('',(1.98254111540206E-16,-1.,0.));
#890=DIRECTION('',(1.,0.,0.));
#891=DIRECTION('',(0.,0.,-1.));
#892=DIRECTION('',(-7.30409884621814E-17,-1.,0.));
#893=DIRECTION('',(1.,-7.30409884621814E-17,0.));
#894=DIRECTION('',(0.,-1.,0.));
#895=DIRECTION('',(0.,0.,-1.));
#896=DIRECTION('',(0.,0.,1.));
#897=DIRECTION('',(1.,0.,0.));
#898=CARTESIAN_POINT('',(0.,0.,0.));
#899=CARTESIAN_POINT('',(0.,-0.0475,0.0179));
#900=CARTESIAN_POINT('',(0.03,-0.0475,0.0179));
#901=CARTESIAN_POINT('',(0.03,-0.0475,0.013));
#902=CARTESIAN_POINT('',(0.03,-0.0475,0.0169));
#903=CARTESIAN_POINT('',(0.,-0.0475,0.0169));
#904=CARTESIAN_POINT('',(-0.03,-0.0475,0.0169));
#905=CARTESIAN_POINT('',(-0.03,-0.0475,0.0179));
#906=CARTESIAN_POINT('',(-0.03,-0.0475,0.013));
#907=CARTESIAN_POINT('',(0.,-0.0475,0.013));
#908=CARTESIAN_POINT('',(0.035,0.,0.0179));
#909=CARTESIAN_POINT('',(0.035,0.0425,0.0179));
#910=CARTESIAN_POINT('',(0.035,0.0425,0.013));
#911=CARTESIAN_POINT('',(0.035,0.0425,0.0169));
#912=CARTESIAN_POINT('',(0.035,-0.0425,0.0169));
#913=CARTESIAN_POINT('',(0.035,-0.0425,0.0169));
#914=CARTESIAN_POINT('',(0.035,-0.0425,0.013));
#915=CARTESIAN_POINT('',(0.035,-0.0425,0.013));
#916=CARTESIAN_POINT('',(0.035,0.,0.013));
#917=CARTESIAN_POINT('',(6.93889390390723E-18,0.0475,0.0179));
#918=CARTESIAN_POINT('',(-0.03,0.0475,0.0179));
#919=CARTESIAN_POINT('',(-0.03,0.0475,0.013));
#920=CARTESIAN_POINT('',(-0.03,0.0475,0.0169));
#921=CARTESIAN_POINT('',(0.03,0.0475,0.0169));
#922=CARTESIAN_POINT('',(0.03,0.0475,0.0169));
#923=CARTESIAN_POINT('',(0.03,0.0475,0.0179));
#924=CARTESIAN_POINT('',(0.03,0.0475,0.013));
#925=CARTESIAN_POINT('',(6.93889390390723E-18,0.0475,0.013));
#926=CARTESIAN_POINT('',(-0.0289261468918714,-0.00877658987897683,0.0179));
#927=CARTESIAN_POINT('',(-0.0289261468918714,-0.00877658987897683,0.013));
#928=CARTESIAN_POINT('',(-0.0289261468918714,0.0201534101210271,0.013));
#929=CARTESIAN_POINT('',(-0.0289261468918714,-0.0377065898789808,0.013));
#930=CARTESIAN_POINT('',(-0.0289261468918714,0.0201534101210271,0.0179));
#931=CARTESIAN_POINT('',(-0.0289261468918714,0.0201534101210271,0.0179));
#932=CARTESIAN_POINT('',(-0.0289261468918714,-0.00877658987897683,0.0179));
#933=CARTESIAN_POINT('',(-0.0289261468918714,-0.0377065898789808,0.0179));
#934=CARTESIAN_POINT('',(-0.0289261468918714,-0.0377065898789808,0.0179));
#935=CARTESIAN_POINT('',(1.38531081320149E-5,0.0201534101210271,0.0179));
#936=CARTESIAN_POINT('',(1.38531081320149E-5,0.0201534101210271,0.013));
#937=CARTESIAN_POINT('',(0.0289538531081354,0.0201534101210271,0.013));
#938=CARTESIAN_POINT('',(0.0289538531081354,0.0201534101210271,0.0179));
#939=CARTESIAN_POINT('',(0.0289538531081354,0.0201534101210271,0.0179));
#940=CARTESIAN_POINT('',(1.38531081320149E-5,0.0201534101210271,0.0179));
#941=CARTESIAN_POINT('',(0.0289538531081354,-0.00877658987897683,0.0179));
#942=CARTESIAN_POINT('',(0.0289538531081354,-0.00877658987897683,0.013));
#943=CARTESIAN_POINT('',(0.0289538531081354,-0.0377065898789808,0.013));
#944=CARTESIAN_POINT('',(0.0289538531081354,-0.0377065898789808,0.0179));
#945=CARTESIAN_POINT('',(0.0289538531081354,-0.0377065898789808,0.0179));
#946=CARTESIAN_POINT('',(0.0289538531081354,-0.00877658987897683,0.0179));
#947=CARTESIAN_POINT('',(0.0238720513969673,0.0343803486379581,0.0179));
#948=CARTESIAN_POINT('',(0.0238720513969673,0.0343803486379581,0.0179));
#949=CARTESIAN_POINT('',(0.0258720513969673,0.0343803486379581,0.0179));
#950=CARTESIAN_POINT('',(0.0238720513969673,0.0343803486379581,0.013));
#951=CARTESIAN_POINT('',(0.0258720513969673,0.0343803486379581,0.013));
#952=CARTESIAN_POINT('',(-0.0211279486030327,0.0335803486379581,0.0179));
#953=CARTESIAN_POINT('',(-0.0211279486030327,0.0335803486379581,0.0179));
#954=CARTESIAN_POINT('',(-0.0166279486030327,0.0335803486379581,0.0179));
#955=CARTESIAN_POINT('',(-0.0211279486030327,0.0335803486379581,0.013));
#956=CARTESIAN_POINT('',(-0.0166279486030327,0.0335803486379581,0.013));
#957=CARTESIAN_POINT('',(1.38531081320184E-5,-0.0377065898789808,0.0179));
#958=CARTESIAN_POINT('',(1.38531081320184E-5,-0.0377065898789808,0.013));
#959=CARTESIAN_POINT('',(1.38531081320184E-5,-0.0377065898789808,0.0179));
#960=CARTESIAN_POINT('',(-0.035,-6.93889390390723E-18,0.0179));
#961=CARTESIAN_POINT('',(-0.035,-0.0425,0.0179));
#962=CARTESIAN_POINT('',(-0.035,-0.0425,0.013));
#963=CARTESIAN_POINT('',(-0.035,-0.0425,0.0169));
#964=CARTESIAN_POINT('',(-0.035,-6.93889390390723E-18,0.0169));
#965=CARTESIAN_POINT('',(-0.035,0.0425,0.0169));
#966=CARTESIAN_POINT('',(-0.035,0.0425,0.013));
#967=CARTESIAN_POINT('',(-0.035,0.0425,0.013));
#968=CARTESIAN_POINT('',(-0.035,-6.93889390390723E-18,0.013));
#969=CARTESIAN_POINT('',(0.,0.,0.0179));
#970=CARTESIAN_POINT('',(9.2188161866196E-18,-0.0465,0.0179));
#971=CARTESIAN_POINT('',(-0.03,-0.0465,0.0179));
#972=CARTESIAN_POINT('',(0.03,-0.0465,0.0179));
#973=CARTESIAN_POINT('',(0.03,-0.0425,0.0179));
#974=CARTESIAN_POINT('',(0.034,-0.0425,0.0179));
#975=CARTESIAN_POINT('',(0.034,0.0425,0.0179));
#976=CARTESIAN_POINT('',(0.034,0.0425,0.0179));
#977=CARTESIAN_POINT('',(0.03,0.0425,0.0179));
#978=CARTESIAN_POINT('',(0.03,0.0465,0.0179));
#979=CARTESIAN_POINT('',(-0.03,0.0465,0.0179));
#980=CARTESIAN_POINT('',(-0.03,0.0465,0.0179));
#981=CARTESIAN_POINT('',(-0.03,0.0425,0.0179));
#982=CARTESIAN_POINT('',(-0.034,0.0425,0.0179));
#983=CARTESIAN_POINT('',(-0.034,2.48339360771416E-18,0.0179));
#984=CARTESIAN_POINT('',(-0.034,-0.0425,0.0179));
#985=CARTESIAN_POINT('',(-0.03,-0.0425,0.0179));
#986=CARTESIAN_POINT('',(0.0288720513969674,0.0412803486379581,0.0179));
#987=CARTESIAN_POINT('',(0.0303970513969673,0.0412803486379581,0.0179));
#988=CARTESIAN_POINT('',(0.0288720513969674,-0.0414196513620419,0.0179));
#989=CARTESIAN_POINT('',(0.0303970513969673,-0.0414196513620419,0.0179));
#990=CARTESIAN_POINT('',(-0.0289279486030327,-0.0414196513620419,0.0179));
#991=CARTESIAN_POINT('',(-0.0274029486030327,-0.0414196513620419,0.0179));
#992=CARTESIAN_POINT('',(0.,0.,0.013));
#993=CARTESIAN_POINT('',(-0.0289279486030327,-0.0414196513620419,0.013));
#994=CARTESIAN_POINT('',(-0.0319279486030327,-0.0414196513620419,0.013));
#995=CARTESIAN_POINT('',(0.0288720513969674,-0.0414196513620419,0.013));
#996=CARTESIAN_POINT('',(0.0258720513969674,-0.0414196513620419,0.013));
#997=CARTESIAN_POINT('',(0.0288720513969674,0.0412803486379581,0.013));
#998=CARTESIAN_POINT('',(0.0258720513969674,0.0412803486379581,0.013));
#999=CARTESIAN_POINT('',(-0.03,0.0425,0.013));
#1000=CARTESIAN_POINT('',(0.03,0.0425,0.013));
#1001=CARTESIAN_POINT('',(0.03,-0.0425,0.013));
#1002=CARTESIAN_POINT('',(-0.03,-0.0425,0.013));
#1003=CARTESIAN_POINT('',(-0.03,0.0425,0.0179));
#1004=CARTESIAN_POINT('',(-0.03,0.0425,0.0169));
#1005=CARTESIAN_POINT('',(0.03,0.0425,0.0179));
#1006=CARTESIAN_POINT('',(0.03,0.0425,0.0169));
#1007=CARTESIAN_POINT('',(0.03,-0.0425,0.0179));
#1008=CARTESIAN_POINT('',(0.03,-0.0425,0.0169));
#1009=CARTESIAN_POINT('',(-0.03,-0.0425,0.0179));
#1010=CARTESIAN_POINT('',(-0.03,-0.0425,0.0169));
#1011=CARTESIAN_POINT('',(-0.0289279486030327,-0.0414196513620419,0.028));
#1012=CARTESIAN_POINT('',(-0.0289279486030327,-0.0414196513620419,0.012290174031464));
#1013=CARTESIAN_POINT('',(-0.0304529486030327,-0.0414196513620419,0.012290174031464));
#1014=CARTESIAN_POINT('',(0.0288720513969674,-0.0414196513620419,0.028));
#1015=CARTESIAN_POINT('',(0.0288720513969674,-0.0414196513620419,0.012290174031464));
#1016=CARTESIAN_POINT('',(0.0273470513969674,-0.0414196513620419,0.012290174031464));
#1017=CARTESIAN_POINT('',(0.0288720513969674,0.0412803486379581,0.028));
#1018=CARTESIAN_POINT('',(0.0288720513969674,0.0412803486379581,0.012290174031464));
#1019=CARTESIAN_POINT('',(0.0273470513969674,0.0412803486379581,0.012290174031464));
#1020=CARTESIAN_POINT('',(0.0288720513969674,0.0412803486379581,0.0066));
#1021=CARTESIAN_POINT('',(0.0288720513969674,0.0412803486379581,0.0115));
#1022=CARTESIAN_POINT('',(0.0306220513969674,0.0412803486379581,0.0115));
#1023=CARTESIAN_POINT('',(0.0288720513969674,0.0412803486379581,0.0066));
#1024=CARTESIAN_POINT('',(0.0271220513969673,0.0412803486379581,0.0066));
#1025=CARTESIAN_POINT('',(0.0288720513969674,0.0412803486379581,0.0066));
#1026=CARTESIAN_POINT('',(0.0288720513969674,0.0412803486379581,0.0066));
#1027=CARTESIAN_POINT('',(0.0258720513969674,0.0412803486379581,0.0066));
#1028=CARTESIAN_POINT('',(0.,0.,0.0066));
#1029=CARTESIAN_POINT('',(0.0288720513969674,-0.0414196513620419,0.0066));
#1030=CARTESIAN_POINT('',(0.0288720513969674,-0.0414196513620419,0.0115));
#1031=CARTESIAN_POINT('',(0.0306220513969674,-0.0414196513620419,0.0115));
#1032=CARTESIAN_POINT('',(0.0288720513969674,-0.0414196513620419,0.0066));
#1033=CARTESIAN_POINT('',(0.0271220513969673,-0.0414196513620419,0.0066));
#1034=CARTESIAN_POINT('',(0.0288720513969674,-0.0414196513620419,0.0066));
#1035=CARTESIAN_POINT('',(0.0288720513969674,-0.0414196513620419,0.0066));
#1036=CARTESIAN_POINT('',(0.0258720513969674,-0.0414196513620419,0.0066));
#1037=CARTESIAN_POINT('',(0.,0.,0.0066));
#1038=CARTESIAN_POINT('',(-0.0289279486030327,-0.0414196513620419,0.0066));
#1039=CARTESIAN_POINT('',(-0.0289279486030327,-0.0414196513620419,0.0115));
#1040=CARTESIAN_POINT('',(-0.0271779486030327,-0.0414196513620419,0.0115));
#1041=CARTESIAN_POINT('',(-0.0289279486030327,-0.0414196513620419,0.0066));
#1042=CARTESIAN_POINT('',(-0.0306779486030327,-0.0414196513620419,0.0066));
#1043=CARTESIAN_POINT('',(-0.0289279486030327,-0.0414196513620419,0.0066));
#1044=CARTESIAN_POINT('',(-0.0289279486030327,-0.0414196513620419,0.0066));
#1045=CARTESIAN_POINT('',(-0.0319279486030327,-0.0414196513620419,0.0066));
#1046=CARTESIAN_POINT('',(0.,0.,0.0066));
#1047=CARTESIAN_POINT('',(-0.0289279486030327,-0.0414196513620419,0.0115));
#1048=CARTESIAN_POINT('',(0.0288720513969674,-0.0414196513620419,0.0115));
#1049=CARTESIAN_POINT('',(0.0288720513969674,0.0412803486379581,0.0115));
#1050=CARTESIAN_POINT('',(-0.03,0.0425,0.0169));
#1051=CARTESIAN_POINT('',(-0.03,0.0465,0.0169));
#1052=CARTESIAN_POINT('',(-0.034,0.0425,0.0169));
#1053=CARTESIAN_POINT('',(-0.034,-7.01193489236941E-18,0.0169));
#1054=CARTESIAN_POINT('',(-0.034,-0.0425,0.0169));
#1055=CARTESIAN_POINT('',(-9.2188161866196E-18,0.0465,0.0169));
#1056=CARTESIAN_POINT('',(0.03,0.0465,0.0169));
#1057=CARTESIAN_POINT('',(-0.03,-0.0425,0.0169));
#1058=CARTESIAN_POINT('',(-0.03,-0.0465,0.0169));
#1059=CARTESIAN_POINT('',(0.03,0.0425,0.0169));
#1060=CARTESIAN_POINT('',(0.034,0.0425,0.0169));
#1061=CARTESIAN_POINT('',(-1.98254111540207E-19,-0.0465,0.0169));
#1062=CARTESIAN_POINT('',(0.03,-0.0465,0.0169));
#1063=CARTESIAN_POINT('',(0.034,-2.48339360771416E-18,0.0169));
#1064=CARTESIAN_POINT('',(0.034,-0.0425,0.0169));
#1065=CARTESIAN_POINT('',(0.03,-0.0425,0.0169));
#1066=MECHANICAL_DESIGN_GEOMETRIC_PRESENTATION_REPRESENTATION('',(#609),
#1067);
#1067=(
GEOMETRIC_REPRESENTATION_CONTEXT(3)
GLOBAL_UNCERTAINTY_ASSIGNED_CONTEXT((#1068))
GLOBAL_UNIT_ASSIGNED_CONTEXT((#1071,#1070,#1069))
REPRESENTATION_CONTEXT('Top','TOP_LEVEL_ASSEMBLY_PART')
);
#1068=UNCERTAINTY_MEASURE_WITH_UNIT(LENGTH_MEASURE(1.E-8),#1071,
'DISTANCE_ACCURACY_VALUE','Maximum Tolerance applied to model');
#1069=(
NAMED_UNIT(*)
SI_UNIT($,.STERADIAN.)
SOLID_ANGLE_UNIT()
);
#1070=(
NAMED_UNIT(*)
PLANE_ANGLE_UNIT()
SI_UNIT($,.RADIAN.)
);
#1071=(
LENGTH_UNIT()
NAMED_UNIT(*)
SI_UNIT($,.METRE.)
);
#1072=PRODUCT_DEFINITION_SHAPE('','',#1073);
#1073=PRODUCT_DEFINITION('','',#1075,#1074);
#1074=PRODUCT_DEFINITION_CONTEXT('',#1081,'design');
#1075=PRODUCT_DEFINITION_FORMATION_WITH_SPECIFIED_SOURCE('','',#1077,
 .NOT_KNOWN.);
#1076=PRODUCT_RELATED_PRODUCT_CATEGORY('','',(#1077));
#1077=PRODUCT('Top','Top','Top',(#1079));
#1078=PRODUCT_CATEGORY('','');
#1079=PRODUCT_CONTEXT('',#1081,'mechanical');
#1080=APPLICATION_PROTOCOL_DEFINITION('international standard',
'ap242_managed_model_based_3d_engineering',2011,#1081);
#1081=APPLICATION_CONTEXT('managed model based 3d engineering');
ENDSEC;
END-ISO-10303-21;
